<svg width="24" height="24" viewBox="0 0 24 24" fill="none" xmlns="http://www.w3.org/2000/svg">
<path d="M5.25 10.5C5.05109 10.5 4.86032 10.579 4.71967 10.7197C4.57902 10.8603 4.5 11.0511 4.5 11.25V20.25C4.5 20.4489 4.57902 20.6397 4.71967 20.7803C4.86032 20.921 5.05109 21 5.25 21H18.75C18.9489 21 19.1397 20.921 19.2803 20.7803C19.421 20.6397 19.5 20.4489 19.5 20.25V11.25C19.5 11.0511 19.421 10.8603 19.2803 10.7197C19.1397 10.579 18.9489 10.5 18.75 10.5H5.25ZM5.25 9H18.75C19.3467 9 19.919 9.23705 20.341 9.65901C20.7629 10.081 21 10.6533 21 11.25V20.25C21 20.8467 20.7629 21.419 20.341 21.841C19.919 22.2629 19.3467 22.5 18.75 22.5H5.25C4.65326 22.5 4.08097 22.2629 3.65901 21.841C3.23705 21.419 3 20.8467 3 20.25V11.25C3 10.6533 3.23705 10.081 3.65901 9.65901C4.08097 9.23705 4.65326 9 5.25 9Z" fill="#5F5F5F"/>
<path d="M12 12.75C12.1989 12.75 12.3897 12.829 12.5303 12.9696C12.671 13.1103 12.75 13.301 12.75 13.5V18C12.75 18.1989 12.671 18.3896 12.5303 18.5303C12.3897 18.6709 12.1989 18.75 12 18.75C11.8011 18.75 11.6103 18.6709 11.4697 18.5303C11.329 18.3896 11.25 18.1989 11.25 18V13.5C11.25 13.301 11.329 13.1103 11.4697 12.9696C11.6103 12.829 11.8011 12.75 12 12.75ZM16.1789 5.82886C15.7908 4.85737 15.0764 4.05145 14.1585 3.54966C13.2405 3.04788 12.1764 2.88159 11.1492 3.07938C10.1219 3.27718 9.19565 3.8267 8.52967 4.63347C7.86369 5.44023 7.4996 6.45382 7.5 7.49996V8.99996H15.75L18 9.89996V10.5H6V7.49996C5.99837 6.10434 6.4833 4.75182 7.37131 3.67517C8.25933 2.59853 9.49489 1.86513 10.8653 1.6012C12.2358 1.33727 13.6553 1.55933 14.8797 2.22915C16.1041 2.89897 17.0566 3.97466 17.5734 5.27105L16.1789 5.82886Z" fill="#5F5F5F"/>
</svg>
